<?xml version="1.0" encoding="UTF-8"?>
<svg id="Capa_2" data-name="Capa 2" xmlns="http://www.w3.org/2000/svg" viewBox="0 0 254.89 161.96">
  <defs>
    <style>
      .cls-1 {
        fill: #fff;
      }

      .cls-1, .cls-2 {
        stroke-width: 0px;
      }

      .cls-2 {
        fill: #191919;
      }
    </style>
  </defs>
  <g id="Capa_2-2" data-name="Capa 2">
    <path class="cls-2" d="m118.58,59.08v30.4c0,18.35-10.64,35.54-28.29,44.4-16.36,8.21-38.49,12.93-62.74.33C10.31,125.25,0,108.26,0,90.19v-30.7c0-11.04,3.86-21.81,11.17-30.62,18.14-21.83,56.16-52.91,97.62,1.34,6.46,8.45,9.8,18.56,9.8,28.86Z"/>
    <path class="cls-2" d="m254.89,59.08v30.4c0,18.35-10.64,35.54-28.29,44.4-16.36,8.21-38.49,12.93-62.74.33-17.24-8.96-27.55-25.95-27.55-44.02v-30.7c0-11.04,3.86-21.81,11.17-30.62,18.14-21.83,56.16-52.91,97.62,1.34,6.46,8.45,9.8,18.56,9.8,28.86Z"/>
    <path class="cls-1" d="m222.44,67.07c3.76-.04,6.77,3.13,6.77,6.88v8.37c0,11.26-6.02,21.79-16.03,27.24-9.28,5.04-21.81,7.93-35.57.19-9.77-5.5-15.61-15.91-15.61-26.99v-18.84c0-6.76,2.19-13.37,6.34-18.77,7.22-9.41,20-21.61,35.12-16.51,4.22,1.42,6.08,6.45,3.66,10.19-1.77,2.73-3,5.55-3.58,8.32-2.35,11.26,4.1,16.47,11.34,18.85,2.3.75,4.86,1.09,7.57,1.06Z"/>
    <path class="cls-1" d="m86.14,67.07c3.76-.04,6.77,3.13,6.77,6.88v8.37c0,11.26-6.02,21.79-16.03,27.24-9.28,5.04-21.81,7.93-35.57.19-9.77-5.5-15.61-15.91-15.61-26.99v-18.84c0-6.76,2.19-13.37,6.34-18.77,7.22-9.41,20-21.61,35.12-16.51,4.22,1.42,6.08,6.45,3.66,10.19-1.77,2.73-3,5.55-3.58,8.32-2.35,11.26,4.1,16.47,11.34,18.85,2.3.75,4.86,1.09,7.57,1.06Z"/>
    <path class="cls-2" d="m124.44,141.96h7.95c6.18,0,9.66,7.1,5.88,11.99l-3.98,5.13c-2.98,3.84-8.78,3.84-11.75,0l-3.98-5.13c-3.78-4.88-.3-11.99,5.88-11.99Z"/>
  </g>
</svg>